<svg xmlns="http://www.w3.org/2000/svg" viewBox="0 0 32 32">
  <defs>
    <linearGradient id="bg" x1="0%" y1="0%" x2="100%" y2="100%">
      <stop offset="0%" stop-color="#04090F"/>
      <stop offset="100%" stop-color="#0A1628"/>
    </linearGradient>
    <linearGradient id="bl" x1="0%" y1="0%" x2="100%" y2="100%">
      <stop offset="0%" stop-color="#007AFF"/>
      <stop offset="100%" stop-color="#32ADE6"/>
    </linearGradient>
  </defs>
  <rect width="32" height="32" rx="7" fill="url(#bg)"/>
  <path d="M16 3 L27 7.5 L27 16.5 Q27 23.5 16 27 Q5 23.5 5 16.5 L5 7.5 Z" fill="url(#bl)" opacity="0.18"/>
  <path d="M16 4.5 L26 8.5 L26 16.5 Q26 22.5 16 25.5 Q6 22.5 6 16.5 L6 8.5 Z" fill="none" stroke="url(#bl)" stroke-width="1.3"/>
  <rect x="11" y="12.5" width="4.5" height="5.5" rx="1.5" fill="#007AFF"/>
  <rect x="16.5" y="12.5" width="4.5" height="5.5" rx="1.5" fill="#32ADE6"/>
  <rect x="11" y="19.5" width="10" height="2.5" rx="1.2" fill="white" opacity="0.95"/>
  <circle cx="16" cy="9" r="2.5" fill="url(#bl)"/>
</svg>
